<?xml version="1.0" standalone="no"?>
<!DOCTYPE svg PUBLIC "-//W3C//DTD SVG 20010904//EN"
 "http://www.w3.org/TR/2001/REC-SVG-20010904/DTD/svg10.dtd">
<svg version="1.0" xmlns="http://www.w3.org/2000/svg"
 width="721.000000pt" height="721.000000pt" viewBox="0 0 721.000000 721.000000"
 preserveAspectRatio="xMidYMid meet">
<metadata>
Created by potrace 1.14, written by Peter Selinger 2001-2017
</metadata>
<g transform="translate(0.000000,721.000000) scale(0.100000,-0.100000)"
fill="#000000" stroke="none">
<path d="M1379 7206 c-2 -2 -31 -6 -64 -10 -79 -8 -103 -12 -210 -41 -407
-110 -745 -386 -942 -770 -48 -93 -101 -235 -119 -319 -3 -12 -12 -52 -21 -91
-16 -64 -17 -266 -19 -2340 -2 -2146 -2 -2275 15 -2365 66 -346 193 -593 426
-825 245 -245 564 -396 910 -431 88 -9 4421 -9 4495 0 296 35 530 127 755 295
334 251 554 642 591 1052 9 99 9 4405 0 4493 -16 154 -47 278 -100 411 -164
405 -494 719 -911 865 -49 17 -91 31 -92 31 -2 -1 -4 -1 -5 0 -2 0 -12 2 -23
5 -11 2 -54 11 -95 21 -70 16 -239 17 -2331 20 -1241 2 -2258 1 -2260 -1z"/>
</g>
</svg>
