<?xml version="1.0" encoding="UTF-8"?>
<svg id="a" xmlns="http://www.w3.org/2000/svg" width="251.33" height="288.33" viewBox="0 0 251.33 288.33">
  <path d="m50.2,110.14h-13.84v-39.77h13.15v7.47h.37c.88-2.47,2.4-4.41,4.56-5.84,2.16-1.43,4.71-2.14,7.64-2.14s5.22.63,7.31,1.89c2.09,1.26,3.71,3.01,4.85,5.26,1.15,2.25,1.72,4.82,1.72,7.73v25.42h-13.84v-22.56c0-1.34-.23-2.5-.68-3.46-.45-.96-1.12-1.71-2-2.23s-1.95-.79-3.22-.79c-1.2,0-2.25.26-3.17.79-.92.52-1.62,1.28-2.11,2.25-.49.98-.73,2.15-.73,3.52v22.49Z" style="fill:#0619f5; stroke-width:0px;"/>
  <path d="m91.26,108.31c-3.08-1.71-5.43-4.11-7.07-7.21-1.64-3.1-2.45-6.68-2.45-10.73s.82-7.69,2.45-10.77,3.99-5.47,7.07-7.18c3.08-1.71,6.73-2.56,10.95-2.56s7.85.85,10.95,2.56c3.1,1.71,5.47,4.1,7.11,7.18,1.63,3.08,2.45,6.67,2.45,10.77s-.82,7.63-2.45,10.73c-1.64,3.1-4,5.51-7.11,7.21s-6.75,2.56-10.95,2.56-7.87-.85-10.95-2.56Zm14.43-8.95c.93-.84,1.64-2.05,2.12-3.63s.73-3.41.73-5.51-.24-3.89-.73-5.46c-.49-1.56-1.2-2.76-2.12-3.59-.93-.83-2.04-1.25-3.33-1.25-1.37,0-2.54.42-3.52,1.25-.98.83-1.72,2.01-2.22,3.55-.5,1.54-.75,3.37-.75,5.49s.25,4,.75,5.55c.5,1.55,1.24,2.75,2.22,3.59s2.15,1.26,3.52,1.26c1.29,0,2.4-.42,3.33-1.26Z" style="fill:#0619f5; stroke-width:0px;"/>
  <path d="m142.46,110.14h-13.84v-39.77h13.15v7.47h.37c.88-2.47,2.4-4.41,4.56-5.84,2.16-1.43,4.71-2.14,7.64-2.14s5.22.63,7.31,1.89c2.09,1.26,3.71,3.01,4.85,5.26,1.15,2.25,1.72,4.82,1.72,7.73v25.42h-13.84v-22.56c0-1.34-.23-2.5-.68-3.46-.45-.96-1.12-1.71-2-2.23s-1.95-.79-3.22-.79c-1.2,0-2.25.26-3.17.79-.92.52-1.62,1.28-2.11,2.25-.49.98-.73,2.15-.73,3.52v22.49Z" style="fill:#0619f5; stroke-width:0px;"/>
  <path d="m183.51,108.31c-3.08-1.71-5.43-4.11-7.07-7.21-1.64-3.1-2.45-6.68-2.45-10.73s.82-7.69,2.45-10.77,3.99-5.47,7.07-7.18c3.08-1.71,6.73-2.56,10.95-2.56s7.85.85,10.95,2.56c3.1,1.71,5.47,4.1,7.11,7.18,1.63,3.08,2.45,6.67,2.45,10.77s-.82,7.63-2.45,10.73c-1.64,3.1-4,5.51-7.11,7.21s-6.75,2.56-10.95,2.56-7.87-.85-10.95-2.56Zm14.43-8.95c.93-.84,1.64-2.05,2.12-3.63s.73-3.41.73-5.51-.24-3.89-.73-5.46c-.49-1.56-1.2-2.76-2.12-3.59-.93-.83-2.04-1.25-3.33-1.25-1.37,0-2.54.42-3.52,1.25-.98.83-1.72,2.01-2.22,3.55-.5,1.54-.75,3.37-.75,5.49s.25,4,.75,5.55c.5,1.55,1.24,2.75,2.22,3.59s2.15,1.26,3.52,1.26c1.29,0,2.4-.42,3.33-1.26Z" style="fill:#0619f5; stroke-width:0px;"/>
  <path d="m44.94,180.52h-5.92v-47.27h5.75v7.44h.48c1.22-2.55,3-4.53,5.33-5.94,2.33-1.41,5.22-2.11,8.64-2.11,3.22,0,6.03.66,8.42,1.98,2.39,1.32,4.25,3.29,5.57,5.9,1.32,2.61,1.98,5.77,1.98,9.49v30.51h-5.92v-30.16c0-2.52-.47-4.72-1.41-6.57-.94-1.86-2.29-3.29-4.05-4.29-1.76-1-3.84-1.5-6.25-1.5s-4.61.53-6.53,1.59c-1.92,1.06-3.41,2.58-4.48,4.57-1.07,1.99-1.61,4.33-1.61,7.03v29.34Z" style="fill:#0619f5; stroke-width:0px;"/>
  <path d="m99.24,178.38c-3.21-2.06-5.7-4.94-7.46-8.64-1.77-3.7-2.66-7.93-2.66-12.69s.88-9.03,2.66-12.73c1.77-3.7,4.26-6.58,7.46-8.64,3.21-2.06,6.84-3.09,10.9-3.09s7.68,1.03,10.86,3.09c3.18,2.06,5.64,4.94,7.4,8.64,1.75,3.7,2.63,7.94,2.63,12.73s-.88,8.99-2.63,12.69c-1.76,3.7-4.22,6.58-7.4,8.64-3.18,2.06-6.8,3.09-10.86,3.09s-7.7-1.03-10.9-3.09Zm19-4.79c2.26-1.71,3.98-4.02,5.14-6.92,1.16-2.9,1.74-6.11,1.74-9.62s-.58-6.72-1.74-9.62c-1.16-2.9-2.87-5.22-5.14-6.94-2.26-1.73-4.96-2.59-8.1-2.59s-5.83.86-8.1,2.59c-2.26,1.73-3.99,4.04-5.18,6.94-1.19,2.9-1.79,6.11-1.79,9.62s.59,6.72,1.76,9.62c1.17,2.9,2.9,5.21,5.18,6.92,2.28,1.71,4.98,2.57,8.12,2.57s5.83-.86,8.1-2.57Z" style="fill:#0619f5; stroke-width:0px;"/>
  <path d="m162.24,138.29h-22.94v-5.05h22.94v5.05Zm-9.92-16.37v46.01c0,1.89.31,3.38.94,4.48.62,1.1,1.45,1.89,2.48,2.37,1.03.48,2.21.72,3.55.72s2.58-.04,3.92-.13v5.53c-1.19.2-2.68.3-4.48.3-2.12,0-4.12-.46-6.01-1.39-1.89-.93-3.42-2.29-4.59-4.09-1.18-1.8-1.76-3.93-1.76-6.4v-47.4h5.96Z" style="fill:#0619f5; stroke-width:0px;"/>
  <path d="m183.86,178.43c-3.28-2.03-5.8-4.89-7.57-8.57-1.77-3.69-2.66-7.91-2.66-12.67s.88-8.97,2.66-12.71c1.77-3.74,4.24-6.66,7.4-8.75,3.16-2.09,6.78-3.13,10.84-3.13,3.6,0,6.92.85,9.97,2.55s5.49,4.3,7.33,7.81c1.84,3.51,2.76,7.82,2.76,12.93v2.79h-36.91v-5.14h30.95c0-2.96-.6-5.62-1.79-7.99-1.19-2.36-2.86-4.23-5.01-5.59-2.15-1.36-4.58-2.05-7.31-2.05-2.9,0-5.48.76-7.75,2.29-2.26,1.52-4.03,3.58-5.29,6.18-1.26,2.6-1.89,5.4-1.89,8.42v3.13c0,3.69.65,6.91,1.94,9.66,1.29,2.76,3.12,4.88,5.48,6.35,2.36,1.48,5.13,2.22,8.29,2.22,2.06,0,3.9-.31,5.51-.94,1.61-.62,2.96-1.4,4.05-2.33,1.09-.93,1.92-1.96,2.5-3.09h6.36c-.73,2.21-1.93,4.19-3.61,5.94-1.68,1.76-3.79,3.15-6.31,4.18-2.52,1.03-5.35,1.54-8.49,1.54-4.35,0-8.17-1.02-11.45-3.05Z" style="fill:#0619f5; stroke-width:0px;"/>
  <rect x="3.5" y="3.5" width="244.33" height="244.33" rx="30.39" ry="30.39" style="fill:none; stroke:#001aff; stroke-miterlimit:10; stroke-width:7px;"/>
  <path d="m3.5,52.39v183.55c0,16.78,13.61,30.39,30.39,30.39h183.55c16.78,0,30.39-13.61,30.39-30.39V52.39" style="fill:none; stroke:#001aff; stroke-miterlimit:10; stroke-width:7px;"/>
  <path d="m3.5,70.89v183.55c0,16.78,13.61,30.39,30.39,30.39h183.55c16.78,0,30.39-13.61,30.39-30.39V70.89" style="fill:none; stroke:#001aff; stroke-miterlimit:10; stroke-width:7px;"/>
</svg>